<svg xmlns="http://www.w3.org/2000/svg" width="647" height="578" viewBox="0 0 647 578">
  <defs>
    <style>
      .cls-1 {
        fill: #fed7db;
      }

      .cls-1, .cls-2, .cls-3, .cls-4, .cls-5, .cls-6 {
        fill-rule: evenodd;
      }

      .cls-2 {
        fill: #dacdfe;
      }

      .cls-3 {
        fill: #40d0a2;
      }

      .cls-4 {
        fill: #1cacbd;
      }

      .cls-5 {
        fill: #55d0de;
      }

      .cls-6 {
        fill: #c2f9ff;
      }
    </style>
  </defs>
  <path id="_001_1" data-name="001 1" class="cls-1" d="M313,264.307l30,20,2,16-35-14Z"/>
  <path id="_003_1" data-name="003 1" class="cls-2" d="M313,264.307l4-18,20,9,3,16Z"/>
  <path id="_002_1" data-name="002 1" class="cls-3" d="M313,270.307l1-12,26,12,3,15Z"/>
  <path id="Jiva_raw_1" data-name="Jiva raw 1" class="cls-4" d="M371.81,343.224s-2.594,2.571-3.021,0L362.749,310l92.619-44.3,1.007-128.862L341.608,178.12s-2.513.972,0,4.027l9.06,13.088s2.465,2.211,0,6.04l-18.121,27.182s-1.749,1.907,0,5.033l5.034,25.169-21.142-10.068,3.021-16.107a4.6,4.6,0,0,0-1.007-4.027l-18.121-27.182s-2.322-3.407,0-6.04L310.4,182.147s2.178-1.864,0-3.02L195.632,137.851l1.006,127.855L287.244,309a1.707,1.707,0,0,1,1.007,2.014l-6.041,32.215s-0.692,2.3-3.02,0l-99.666-67.451a7.932,7.932,0,0,1-2.014-4.027l1.007-161.077L324.493,56.306l-107.72,60.4,108.727,59.4,108.727-59.4-107.72-60.4L473.49,109.662v164.1Zm-27.182-44.316,15.1,87.586L325.5,436.83l-33.222-48.323L310.4,282.8Z"/>
  <path id="Shape_5027_1_copy" data-name="Shape 5027 1 copy" class="cls-5" d="M185.077,115.291L290.169,71.84l-87.914,47.493,101.05,51.536L192.15,126.407l-1.01,141.47L283.1,314.36l-2.021,21.221-99.029-63.662Zm281.378,0L361.362,71.84l87.914,47.493-101.05,51.536,111.155-44.462,1.011,141.47L368.436,314.36l2.021,21.221,99.029-63.662Z"/>
  <path id="Shape_5028_1" data-name="Shape 5028 1" class="cls-6" d="M188.969,118.274l38.006-17-28,19,40.007,22-48.008-20-2,146.025,88.015,48.008-1,10L185.968,269.3Z"/>
  <path id="Shape_5028_1_copy" data-name="Shape 5028 1 copy" class="cls-6" d="M462.969,118.274l-38.007-17,28,19-40.007,22,48.008-20,2,146.025-88.015,48.008,1,10,90.015-57.01Z"/>
  <path id="JivaHire" class="cls-4" d="M209.8,504.252a16,16,0,0,0,7.556,1.807c7.72,0,14.345-4.545,14.345-15.988V465.377h-9.8v23.161c0,7.391-3.175,8.541-6.241,8.541A13.26,13.26,0,0,1,209.8,495.6v8.651Zm34.766-31.483a5.147,5.147,0,1,0-5.146-5.147A5.141,5.141,0,0,0,244.566,472.769ZM239.8,505.621h9.527v-30H239.8v30Zm31.1-11.17-6.734-18.835h-9.911l11.991,30h9.308l11.991-30h-9.855Zm18.669,2.409c0,5.913,4.763,9.2,10.129,9.2,4.928,0,7.994-2.136,9.2-4.052l0.328,3.614h8.98V489.2c0-9.2-4.983-14.017-15.276-14.017-3.34,0-8.213,1.04-10.732,2.738v7.446a22.021,22.021,0,0,1,9.856-2.519c3.723,0,6.679,1.315,6.625,4.983a29.2,29.2,0,0,0-6.406-.767C294.881,487.059,289.57,490.564,289.57,496.86Zm9.582-.6c0-2.245,2.026-3.723,5.146-3.723a11.058,11.058,0,0,1,4.381.931,5.923,5.923,0,0,1-5.968,5.913C300.849,499.379,299.152,498.448,299.152,496.258Zm51.137-15.276h-14.4V465.377h-9.8v40.244h9.8V489.2h14.4v16.426h9.8V465.377h-9.8v15.605Zm22.774-8.213a5.147,5.147,0,1,0-5.147-5.147A5.141,5.141,0,0,0,373.063,472.769ZM368.3,505.621h9.527v-30H368.3v30Zm26.773,0V491.878c0-5.749,3.121-7.939,7.227-7.939,1.15,0,2.026,0,2.847.054v-8.432a10.852,10.852,0,0,0-2.847-.383,8.025,8.025,0,0,0-7.392,4.709l-0.383-4.271H385.6v30h9.473Zm44.184-14.838c-0.219-10.951-6.9-15.605-15.167-15.605-8.979,0-15.6,5.421-15.659,15.167-0.055,10.074,6.57,15.714,16.919,15.714,5.311,0,8.815-1.314,10.895-2.793v-7.72a17.586,17.586,0,0,1-9.636,2.683c-3.723,0-7.063-1.259-8.158-4.928h20.806v-2.518Zm-15.222-8.049c2.957,0,5.038,1.205,5.8,4.818H418.232C418.834,484.267,420.7,482.734,424.035,482.734Z"/>
</svg>
